# xmcd
# 
# Track frame offsets:
#     150
#     15653
#     37905
#     53396
#     69624
#     86310
#     101772
#     115992
#     131449
#     149296
#     166719
#     186253
#     197870
#     210153
#     231997
#     245526
#     265046
#     281875
#     300394
#     320515
# 
# Disc length: 4443
# 
# Revision: 1
# Processed by: cddbd v1.5.2PL0 Copyright (c) Steve Scherf et al.
# Submitted via: fre:ac v1.0.17
# 
DISCID=0f115914
DTITLE=Various Artist - Line Dance Fever 13
DYEAR=2001
DGENRE=Country
TTITLE0=Funky G. - Suspicious Minds
TTITLE1=Newton - How Am I Supposed To Live Without You
TTITLE2=Cartoons - Yoko
TTITLE3=Jungle Brothers - Freakin You
TTITLE4=Rodriguez - Borriquitto
TTITLE5=Bus Stop - Swingit
TTITLE6=Ethan Allen - Tired Of Toeing The Line
TTITLE7=Michael Martin Murphy - Jukebox
TTITLE8=Travis Tritt - Southbound Train
TTITLE9=Collin Raye - Completely
TTITLE10=Tony Rich Project - Nobody Knows
TTITLE11=Alan Jackson - WWW.Memory
TTITLE12=Steve Holy - Tear One
TTITLE13=Doctor Sax - Havana
TTITLE14=Claudette Pace - Desire
TTITLE15=Mestizzo - Margarita
TTITLE16=Glen Mitchell - Mexican Moon
TTITLE17=Martha Wash&Ru Paul - It's Raining Men
TTITLE18=Pointer Sisters - Jump
TTITLE19=Natalie Cole - This Will Be
EXTD=
EXTT0=
EXTT1=
EXTT2=
EXTT3=
EXTT4=
EXTT5=
EXTT6=
EXTT7=
EXTT8=
EXTT9=
EXTT10=
EXTT11=
EXTT12=
EXTT13=
EXTT14=
EXTT15=
EXTT16=
EXTT17=
EXTT18=
EXTT19=
PLAYORDER=
